<mxfile host="65bd71144e" pages="2">
    <diagram name="Page-1" id="Gz0HIkaizivvWuD0VRhD">
        <mxGraphModel dx="1944" dy="917" grid="1" gridSize="10" guides="1" tooltips="1" connect="1" arrows="1" fold="1" page="0" pageScale="1" pageWidth="850" pageHeight="1100" math="0" shadow="0">
            <root>
                <mxCell id="0"/>
                <mxCell id="1" parent="0"/>
                <mxCell id="29HRyFT-7yKYK-AXS0ma-6" style="edgeStyle=orthogonalEdgeStyle;rounded=0;orthogonalLoop=1;jettySize=auto;html=1;exitX=1;exitY=0.5;exitDx=0;exitDy=0;entryX=0;entryY=0.25;entryDx=0;entryDy=0;" parent="1" source="29HRyFT-7yKYK-AXS0ma-1" target="29HRyFT-7yKYK-AXS0ma-3" edge="1">
                    <mxGeometry relative="1" as="geometry"/>
                </mxCell>
                <mxCell id="29HRyFT-7yKYK-AXS0ma-19" style="edgeStyle=orthogonalEdgeStyle;rounded=0;orthogonalLoop=1;jettySize=auto;html=1;exitX=1;exitY=0.5;exitDx=0;exitDy=0;entryX=0.5;entryY=0;entryDx=0;entryDy=0;" parent="1" source="29HRyFT-7yKYK-AXS0ma-1" target="29HRyFT-7yKYK-AXS0ma-17" edge="1">
                    <mxGeometry relative="1" as="geometry">
                        <Array as="points">
                            <mxPoint x="420" y="270"/>
                            <mxPoint x="420" y="230"/>
                            <mxPoint x="240" y="230"/>
                        </Array>
                    </mxGeometry>
                </mxCell>
                <mxCell id="29HRyFT-7yKYK-AXS0ma-1" value="Motor 1 torque" style="rounded=1;whiteSpace=wrap;html=1;" parent="1" vertex="1">
                    <mxGeometry x="320" y="250" width="80" height="40" as="geometry"/>
                </mxCell>
                <mxCell id="29HRyFT-7yKYK-AXS0ma-7" style="edgeStyle=orthogonalEdgeStyle;rounded=0;orthogonalLoop=1;jettySize=auto;html=1;exitX=1;exitY=0.5;exitDx=0;exitDy=0;entryX=0;entryY=0.75;entryDx=0;entryDy=0;" parent="1" source="29HRyFT-7yKYK-AXS0ma-2" target="29HRyFT-7yKYK-AXS0ma-3" edge="1">
                    <mxGeometry relative="1" as="geometry"/>
                </mxCell>
                <mxCell id="29HRyFT-7yKYK-AXS0ma-13" style="edgeStyle=orthogonalEdgeStyle;rounded=0;orthogonalLoop=1;jettySize=auto;html=1;exitX=1;exitY=0.5;exitDx=0;exitDy=0;entryX=0.5;entryY=1;entryDx=0;entryDy=0;" parent="1" source="29HRyFT-7yKYK-AXS0ma-2" target="29HRyFT-7yKYK-AXS0ma-10" edge="1">
                    <mxGeometry relative="1" as="geometry">
                        <Array as="points">
                            <mxPoint x="420" y="330"/>
                            <mxPoint x="420" y="370"/>
                            <mxPoint x="240" y="370"/>
                        </Array>
                    </mxGeometry>
                </mxCell>
                <mxCell id="29HRyFT-7yKYK-AXS0ma-2" value="Motor 2&lt;div&gt;torque&lt;/div&gt;" style="rounded=1;whiteSpace=wrap;html=1;" parent="1" vertex="1">
                    <mxGeometry x="320" y="310" width="80" height="40" as="geometry"/>
                </mxCell>
                <mxCell id="29HRyFT-7yKYK-AXS0ma-5" value="" style="edgeStyle=orthogonalEdgeStyle;rounded=0;orthogonalLoop=1;jettySize=auto;html=1;" parent="1" source="29HRyFT-7yKYK-AXS0ma-3" target="29HRyFT-7yKYK-AXS0ma-4" edge="1">
                    <mxGeometry relative="1" as="geometry"/>
                </mxCell>
                <mxCell id="29HRyFT-7yKYK-AXS0ma-3" value="Mechanics&lt;div&gt;(inertia, springs, damping, backlash)&lt;/div&gt;" style="rounded=1;whiteSpace=wrap;html=1;fillColor=#008a00;strokeColor=#005700;fontColor=#ffffff;" parent="1" vertex="1">
                    <mxGeometry x="450" y="240" width="110" height="120" as="geometry"/>
                </mxCell>
                <mxCell id="29HRyFT-7yKYK-AXS0ma-4" value="Position, speed&lt;div&gt;of all components&lt;/div&gt;" style="whiteSpace=wrap;html=1;rounded=1;" parent="1" vertex="1">
                    <mxGeometry x="660" y="270" width="120" height="60" as="geometry"/>
                </mxCell>
                <mxCell id="29HRyFT-7yKYK-AXS0ma-11" style="edgeStyle=orthogonalEdgeStyle;rounded=0;orthogonalLoop=1;jettySize=auto;html=1;exitX=1;exitY=0.5;exitDx=0;exitDy=0;entryX=0;entryY=0.5;entryDx=0;entryDy=0;" parent="1" source="29HRyFT-7yKYK-AXS0ma-10" target="29HRyFT-7yKYK-AXS0ma-2" edge="1">
                    <mxGeometry relative="1" as="geometry"/>
                </mxCell>
                <mxCell id="29HRyFT-7yKYK-AXS0ma-12" value="V" style="edgeLabel;html=1;align=center;verticalAlign=middle;resizable=0;points=[];" parent="29HRyFT-7yKYK-AXS0ma-11" vertex="1" connectable="0">
                    <mxGeometry x="-0.06" y="-2" relative="1" as="geometry">
                        <mxPoint y="-12" as="offset"/>
                    </mxGeometry>
                </mxCell>
                <mxCell id="29HRyFT-7yKYK-AXS0ma-10" value="Torque&lt;div&gt;controller&lt;/div&gt;" style="rounded=1;whiteSpace=wrap;html=1;" parent="1" vertex="1">
                    <mxGeometry x="200" y="310" width="80" height="40" as="geometry"/>
                </mxCell>
                <mxCell id="29HRyFT-7yKYK-AXS0ma-20" style="edgeStyle=orthogonalEdgeStyle;rounded=0;orthogonalLoop=1;jettySize=auto;html=1;exitX=1;exitY=0.25;exitDx=0;exitDy=0;entryX=0;entryY=0.5;entryDx=0;entryDy=0;" parent="1" source="29HRyFT-7yKYK-AXS0ma-14" target="29HRyFT-7yKYK-AXS0ma-17" edge="1">
                    <mxGeometry relative="1" as="geometry">
                        <Array as="points">
                            <mxPoint x="130" y="290"/>
                            <mxPoint x="130" y="270"/>
                        </Array>
                    </mxGeometry>
                </mxCell>
                <mxCell id="29HRyFT-7yKYK-AXS0ma-14" value="Torque&lt;div&gt;splitter&lt;/div&gt;" style="rounded=1;whiteSpace=wrap;html=1;" parent="1" vertex="1">
                    <mxGeometry x="-20" y="280" width="80" height="40" as="geometry"/>
                </mxCell>
                <mxCell id="29HRyFT-7yKYK-AXS0ma-15" style="edgeStyle=orthogonalEdgeStyle;rounded=0;orthogonalLoop=1;jettySize=auto;html=1;exitX=1;exitY=0.75;exitDx=0;exitDy=0;entryX=0;entryY=0.5;entryDx=0;entryDy=0;" parent="1" source="29HRyFT-7yKYK-AXS0ma-14" target="29HRyFT-7yKYK-AXS0ma-10" edge="1">
                    <mxGeometry relative="1" as="geometry"/>
                </mxCell>
                <mxCell id="29HRyFT-7yKYK-AXS0ma-16" value="Reference&lt;div&gt;torque&lt;/div&gt;" style="edgeLabel;html=1;align=center;verticalAlign=middle;resizable=0;points=[];" parent="29HRyFT-7yKYK-AXS0ma-15" vertex="1" connectable="0">
                    <mxGeometry x="0.7053" relative="1" as="geometry">
                        <mxPoint x="-12" y="20" as="offset"/>
                    </mxGeometry>
                </mxCell>
                <mxCell id="29HRyFT-7yKYK-AXS0ma-18" style="edgeStyle=orthogonalEdgeStyle;rounded=0;orthogonalLoop=1;jettySize=auto;html=1;exitX=1;exitY=0.5;exitDx=0;exitDy=0;entryX=0;entryY=0.5;entryDx=0;entryDy=0;" parent="1" source="29HRyFT-7yKYK-AXS0ma-17" target="29HRyFT-7yKYK-AXS0ma-1" edge="1">
                    <mxGeometry relative="1" as="geometry"/>
                </mxCell>
                <mxCell id="29HRyFT-7yKYK-AXS0ma-17" value="Torque&lt;div&gt;controller&lt;/div&gt;" style="rounded=1;whiteSpace=wrap;html=1;" parent="1" vertex="1">
                    <mxGeometry x="200" y="250" width="80" height="40" as="geometry"/>
                </mxCell>
                <mxCell id="29HRyFT-7yKYK-AXS0ma-27" style="edgeStyle=orthogonalEdgeStyle;rounded=0;orthogonalLoop=1;jettySize=auto;html=1;exitX=1;exitY=0.5;exitDx=0;exitDy=0;entryX=0;entryY=0.5;entryDx=0;entryDy=0;" parent="1" source="29HRyFT-7yKYK-AXS0ma-21" target="29HRyFT-7yKYK-AXS0ma-14" edge="1">
                    <mxGeometry relative="1" as="geometry"/>
                </mxCell>
                <mxCell id="29HRyFT-7yKYK-AXS0ma-21" value="Torque&lt;div&gt;controller&lt;/div&gt;" style="rounded=1;whiteSpace=wrap;html=1;" parent="1" vertex="1">
                    <mxGeometry x="-140" y="280" width="80" height="40" as="geometry"/>
                </mxCell>
                <mxCell id="29HRyFT-7yKYK-AXS0ma-28" value="Input&lt;div&gt;Voltage&lt;/div&gt;" style="rounded=1;whiteSpace=wrap;html=1;" parent="1" vertex="1">
                    <mxGeometry x="-310" y="280" width="80" height="40" as="geometry"/>
                </mxCell>
                <mxCell id="29HRyFT-7yKYK-AXS0ma-42" style="edgeStyle=orthogonalEdgeStyle;rounded=0;orthogonalLoop=1;jettySize=auto;html=1;entryX=0;entryY=0.5;entryDx=0;entryDy=0;exitX=1;exitY=0.5;exitDx=0;exitDy=0;" parent="1" source="29HRyFT-7yKYK-AXS0ma-72" target="29HRyFT-7yKYK-AXS0ma-41" edge="1">
                    <mxGeometry relative="1" as="geometry">
                        <mxPoint x="-50" y="595" as="sourcePoint"/>
                    </mxGeometry>
                </mxCell>
                <mxCell id="29HRyFT-7yKYK-AXS0ma-73" value="Voltage" style="edgeLabel;html=1;align=center;verticalAlign=middle;resizable=0;points=[];" parent="29HRyFT-7yKYK-AXS0ma-42" vertex="1" connectable="0">
                    <mxGeometry x="0.1286" y="1" relative="1" as="geometry">
                        <mxPoint x="-4" y="-9" as="offset"/>
                    </mxGeometry>
                </mxCell>
                <mxCell id="29HRyFT-7yKYK-AXS0ma-32" style="edgeStyle=orthogonalEdgeStyle;rounded=0;orthogonalLoop=1;jettySize=auto;html=1;exitX=1;exitY=0.5;exitDx=0;exitDy=0;entryX=0;entryY=0.5;entryDx=0;entryDy=0;" parent="1" source="29HRyFT-7yKYK-AXS0ma-30" target="29HRyFT-7yKYK-AXS0ma-31" edge="1">
                    <mxGeometry relative="1" as="geometry"/>
                </mxCell>
                <mxCell id="29HRyFT-7yKYK-AXS0ma-33" value="Current" style="edgeLabel;html=1;align=center;verticalAlign=middle;resizable=0;points=[];" parent="29HRyFT-7yKYK-AXS0ma-32" vertex="1" connectable="0">
                    <mxGeometry x="0.0869" y="1" relative="1" as="geometry">
                        <mxPoint x="-3" y="-9" as="offset"/>
                    </mxGeometry>
                </mxCell>
                <mxCell id="29HRyFT-7yKYK-AXS0ma-30" value="Armature" style="rounded=1;whiteSpace=wrap;html=1;fillColor=#6a00ff;fontColor=#ffffff;strokeColor=#3700CC;" parent="1" vertex="1">
                    <mxGeometry x="40" y="575" width="80" height="40" as="geometry"/>
                </mxCell>
                <mxCell id="29HRyFT-7yKYK-AXS0ma-47" style="edgeStyle=orthogonalEdgeStyle;rounded=0;orthogonalLoop=1;jettySize=auto;html=1;exitX=1;exitY=0.5;exitDx=0;exitDy=0;entryX=0;entryY=0.25;entryDx=0;entryDy=0;" parent="1" source="29HRyFT-7yKYK-AXS0ma-31" target="29HRyFT-7yKYK-AXS0ma-46" edge="1">
                    <mxGeometry relative="1" as="geometry"/>
                </mxCell>
                <mxCell id="29HRyFT-7yKYK-AXS0ma-48" value="Torque" style="edgeLabel;html=1;align=center;verticalAlign=middle;resizable=0;points=[];" parent="29HRyFT-7yKYK-AXS0ma-47" vertex="1" connectable="0">
                    <mxGeometry x="0.2438" y="1" relative="1" as="geometry">
                        <mxPoint x="-11" y="-9" as="offset"/>
                    </mxGeometry>
                </mxCell>
                <mxCell id="29HRyFT-7yKYK-AXS0ma-71" style="edgeStyle=orthogonalEdgeStyle;rounded=0;orthogonalLoop=1;jettySize=auto;html=1;exitX=1;exitY=0.5;exitDx=0;exitDy=0;entryX=0.5;entryY=1;entryDx=0;entryDy=0;" parent="1" source="29HRyFT-7yKYK-AXS0ma-31" target="29HRyFT-7yKYK-AXS0ma-72" edge="1">
                    <mxGeometry relative="1" as="geometry">
                        <mxPoint x="-170" y="660" as="targetPoint"/>
                    </mxGeometry>
                </mxCell>
                <mxCell id="29HRyFT-7yKYK-AXS0ma-31" value="K_t" style="rounded=1;whiteSpace=wrap;html=1;fillColor=#6a00ff;fontColor=#ffffff;strokeColor=#3700CC;" parent="1" vertex="1">
                    <mxGeometry x="190" y="575" width="80" height="40" as="geometry"/>
                </mxCell>
                <mxCell id="29HRyFT-7yKYK-AXS0ma-44" style="edgeStyle=orthogonalEdgeStyle;rounded=0;orthogonalLoop=1;jettySize=auto;html=1;exitX=0;exitY=0.5;exitDx=0;exitDy=0;entryX=0.5;entryY=0;entryDx=0;entryDy=0;" parent="1" source="29HRyFT-7yKYK-AXS0ma-34" target="29HRyFT-7yKYK-AXS0ma-41" edge="1">
                    <mxGeometry relative="1" as="geometry"/>
                </mxCell>
                <mxCell id="29HRyFT-7yKYK-AXS0ma-45" value="Back emf" style="edgeLabel;html=1;align=center;verticalAlign=middle;resizable=0;points=[];" parent="29HRyFT-7yKYK-AXS0ma-44" vertex="1" connectable="0">
                    <mxGeometry x="-0.5454" y="-1" relative="1" as="geometry">
                        <mxPoint x="3" y="11" as="offset"/>
                    </mxGeometry>
                </mxCell>
                <mxCell id="29HRyFT-7yKYK-AXS0ma-34" value="Induced emf" style="rounded=1;whiteSpace=wrap;html=1;fillColor=#6a00ff;fontColor=#ffffff;strokeColor=#3700CC;" parent="1" vertex="1">
                    <mxGeometry x="120" y="485" width="80" height="40" as="geometry"/>
                </mxCell>
                <mxCell id="29HRyFT-7yKYK-AXS0ma-43" style="edgeStyle=orthogonalEdgeStyle;rounded=0;orthogonalLoop=1;jettySize=auto;html=1;exitX=1;exitY=0.5;exitDx=0;exitDy=0;entryX=0;entryY=0.5;entryDx=0;entryDy=0;" parent="1" source="29HRyFT-7yKYK-AXS0ma-41" target="29HRyFT-7yKYK-AXS0ma-30" edge="1">
                    <mxGeometry relative="1" as="geometry"/>
                </mxCell>
                <mxCell id="29HRyFT-7yKYK-AXS0ma-41" value="" style="ellipse;whiteSpace=wrap;html=1;aspect=fixed;" parent="1" vertex="1">
                    <mxGeometry x="-10" y="585" width="20" height="20" as="geometry"/>
                </mxCell>
                <mxCell id="29HRyFT-7yKYK-AXS0ma-69" style="edgeStyle=orthogonalEdgeStyle;rounded=0;orthogonalLoop=1;jettySize=auto;html=1;exitX=1;exitY=0.5;exitDx=0;exitDy=0;" parent="1" source="29HRyFT-7yKYK-AXS0ma-46" edge="1">
                    <mxGeometry relative="1" as="geometry">
                        <mxPoint x="609.9999999999998" y="670.3103448275863" as="targetPoint"/>
                    </mxGeometry>
                </mxCell>
                <mxCell id="29HRyFT-7yKYK-AXS0ma-70" value="Load pos, velocity" style="edgeLabel;html=1;align=center;verticalAlign=middle;resizable=0;points=[];" parent="29HRyFT-7yKYK-AXS0ma-69" vertex="1" connectable="0">
                    <mxGeometry x="0.1925" y="2" relative="1" as="geometry">
                        <mxPoint y="-9" as="offset"/>
                    </mxGeometry>
                </mxCell>
                <mxCell id="29HRyFT-7yKYK-AXS0ma-79" style="edgeStyle=orthogonalEdgeStyle;rounded=0;orthogonalLoop=1;jettySize=auto;html=1;exitX=1;exitY=0.5;exitDx=0;exitDy=0;entryX=0.5;entryY=1;entryDx=0;entryDy=0;" parent="1" source="29HRyFT-7yKYK-AXS0ma-46" target="29HRyFT-7yKYK-AXS0ma-76" edge="1">
                    <mxGeometry relative="1" as="geometry">
                        <Array as="points">
                            <mxPoint x="480" y="670"/>
                            <mxPoint x="480" y="940"/>
                            <mxPoint x="-390" y="940"/>
                        </Array>
                    </mxGeometry>
                </mxCell>
                <mxCell id="29HRyFT-7yKYK-AXS0ma-80" value="Load velcoty" style="edgeLabel;html=1;align=center;verticalAlign=middle;resizable=0;points=[];" parent="29HRyFT-7yKYK-AXS0ma-79" vertex="1" connectable="0">
                    <mxGeometry x="-0.8579" y="3" relative="1" as="geometry">
                        <mxPoint x="37" y="-3" as="offset"/>
                    </mxGeometry>
                </mxCell>
                <mxCell id="29HRyFT-7yKYK-AXS0ma-46" value="Mechanics" style="rounded=1;whiteSpace=wrap;html=1;fillColor=#008a00;strokeColor=#005700;fontColor=#ffffff;" parent="1" vertex="1">
                    <mxGeometry x="330" y="520" width="80" height="300" as="geometry"/>
                </mxCell>
                <mxCell id="29HRyFT-7yKYK-AXS0ma-54" style="edgeStyle=orthogonalEdgeStyle;rounded=0;orthogonalLoop=1;jettySize=auto;html=1;exitX=1;exitY=0.5;exitDx=0;exitDy=0;entryX=0;entryY=0.5;entryDx=0;entryDy=0;" parent="1" source="29HRyFT-7yKYK-AXS0ma-56" target="29HRyFT-7yKYK-AXS0ma-59" edge="1">
                    <mxGeometry relative="1" as="geometry"/>
                </mxCell>
                <mxCell id="29HRyFT-7yKYK-AXS0ma-55" value="Current" style="edgeLabel;html=1;align=center;verticalAlign=middle;resizable=0;points=[];" parent="29HRyFT-7yKYK-AXS0ma-54" vertex="1" connectable="0">
                    <mxGeometry x="0.0869" y="1" relative="1" as="geometry">
                        <mxPoint x="-3" y="-9" as="offset"/>
                    </mxGeometry>
                </mxCell>
                <mxCell id="29HRyFT-7yKYK-AXS0ma-56" value="Armature" style="rounded=1;whiteSpace=wrap;html=1;fillColor=#6a00ff;fontColor=#ffffff;strokeColor=#3700CC;" parent="1" vertex="1">
                    <mxGeometry x="40" y="725" width="80" height="40" as="geometry"/>
                </mxCell>
                <mxCell id="29HRyFT-7yKYK-AXS0ma-57" style="edgeStyle=orthogonalEdgeStyle;rounded=0;orthogonalLoop=1;jettySize=auto;html=1;exitX=1;exitY=0.5;exitDx=0;exitDy=0;entryX=0;entryY=0.75;entryDx=0;entryDy=0;" parent="1" source="29HRyFT-7yKYK-AXS0ma-59" target="29HRyFT-7yKYK-AXS0ma-46" edge="1">
                    <mxGeometry relative="1" as="geometry">
                        <mxPoint x="329.9999999999998" y="730" as="targetPoint"/>
                    </mxGeometry>
                </mxCell>
                <mxCell id="29HRyFT-7yKYK-AXS0ma-58" value="Torque" style="edgeLabel;html=1;align=center;verticalAlign=middle;resizable=0;points=[];" parent="29HRyFT-7yKYK-AXS0ma-57" vertex="1" connectable="0">
                    <mxGeometry x="0.2438" y="1" relative="1" as="geometry">
                        <mxPoint x="-11" y="11" as="offset"/>
                    </mxGeometry>
                </mxCell>
                <mxCell id="29HRyFT-7yKYK-AXS0ma-86" style="edgeStyle=orthogonalEdgeStyle;rounded=0;orthogonalLoop=1;jettySize=auto;html=1;exitX=1;exitY=0.5;exitDx=0;exitDy=0;entryX=0.5;entryY=0;entryDx=0;entryDy=0;" parent="1" source="29HRyFT-7yKYK-AXS0ma-59" target="29HRyFT-7yKYK-AXS0ma-84" edge="1">
                    <mxGeometry relative="1" as="geometry">
                        <Array as="points">
                            <mxPoint x="290" y="745"/>
                            <mxPoint x="290" y="705"/>
                            <mxPoint x="-110" y="705"/>
                        </Array>
                    </mxGeometry>
                </mxCell>
                <mxCell id="29HRyFT-7yKYK-AXS0ma-59" value="K_t" style="rounded=1;whiteSpace=wrap;html=1;fillColor=#6a00ff;fontColor=#ffffff;strokeColor=#3700CC;" parent="1" vertex="1">
                    <mxGeometry x="190" y="725" width="80" height="40" as="geometry"/>
                </mxCell>
                <mxCell id="29HRyFT-7yKYK-AXS0ma-60" style="edgeStyle=orthogonalEdgeStyle;rounded=0;orthogonalLoop=1;jettySize=auto;html=1;exitX=0;exitY=0.5;exitDx=0;exitDy=0;entryX=0.5;entryY=1;entryDx=0;entryDy=0;" parent="1" source="29HRyFT-7yKYK-AXS0ma-62" target="29HRyFT-7yKYK-AXS0ma-64" edge="1">
                    <mxGeometry relative="1" as="geometry"/>
                </mxCell>
                <mxCell id="29HRyFT-7yKYK-AXS0ma-61" value="Back emf" style="edgeLabel;html=1;align=center;verticalAlign=middle;resizable=0;points=[];" parent="29HRyFT-7yKYK-AXS0ma-60" vertex="1" connectable="0">
                    <mxGeometry x="-0.5454" y="-1" relative="1" as="geometry">
                        <mxPoint x="3" y="11" as="offset"/>
                    </mxGeometry>
                </mxCell>
                <mxCell id="29HRyFT-7yKYK-AXS0ma-62" value="Induced emf" style="rounded=1;whiteSpace=wrap;html=1;fillColor=#6a00ff;fontColor=#ffffff;strokeColor=#3700CC;" parent="1" vertex="1">
                    <mxGeometry x="120" y="820" width="80" height="40" as="geometry"/>
                </mxCell>
                <mxCell id="29HRyFT-7yKYK-AXS0ma-63" style="edgeStyle=orthogonalEdgeStyle;rounded=0;orthogonalLoop=1;jettySize=auto;html=1;exitX=1;exitY=0.5;exitDx=0;exitDy=0;entryX=0;entryY=0.5;entryDx=0;entryDy=0;" parent="1" source="29HRyFT-7yKYK-AXS0ma-64" target="29HRyFT-7yKYK-AXS0ma-56" edge="1">
                    <mxGeometry relative="1" as="geometry"/>
                </mxCell>
                <mxCell id="29HRyFT-7yKYK-AXS0ma-64" value="" style="ellipse;whiteSpace=wrap;html=1;aspect=fixed;" parent="1" vertex="1">
                    <mxGeometry x="-10" y="735" width="20" height="20" as="geometry"/>
                </mxCell>
                <mxCell id="29HRyFT-7yKYK-AXS0ma-66" style="edgeStyle=orthogonalEdgeStyle;rounded=0;orthogonalLoop=1;jettySize=auto;html=1;exitX=1;exitY=0.75;exitDx=0;exitDy=0;entryX=1;entryY=0.5;entryDx=0;entryDy=0;" parent="1" source="29HRyFT-7yKYK-AXS0ma-46" target="29HRyFT-7yKYK-AXS0ma-62" edge="1">
                    <mxGeometry relative="1" as="geometry">
                        <mxPoint x="500" y="730.1428571428571" as="targetPoint"/>
                        <mxPoint x="409.9999999999998" y="730" as="sourcePoint"/>
                    </mxGeometry>
                </mxCell>
                <mxCell id="29HRyFT-7yKYK-AXS0ma-67" value="Velocity" style="edgeLabel;html=1;align=center;verticalAlign=middle;resizable=0;points=[];" parent="29HRyFT-7yKYK-AXS0ma-66" vertex="1" connectable="0">
                    <mxGeometry x="-0.2297" y="1" relative="1" as="geometry">
                        <mxPoint x="28" y="-106" as="offset"/>
                    </mxGeometry>
                </mxCell>
                <mxCell id="29HRyFT-7yKYK-AXS0ma-50" style="edgeStyle=orthogonalEdgeStyle;rounded=0;orthogonalLoop=1;jettySize=auto;html=1;exitX=1;exitY=0.25;exitDx=0;exitDy=0;entryX=1;entryY=0.5;entryDx=0;entryDy=0;" parent="1" source="29HRyFT-7yKYK-AXS0ma-46" target="29HRyFT-7yKYK-AXS0ma-34" edge="1">
                    <mxGeometry relative="1" as="geometry">
                        <mxPoint x="500" y="540.1428571428571" as="targetPoint"/>
                        <Array as="points">
                            <mxPoint x="440" y="595"/>
                            <mxPoint x="440" y="505"/>
                        </Array>
                    </mxGeometry>
                </mxCell>
                <mxCell id="29HRyFT-7yKYK-AXS0ma-51" value="Velocity" style="edgeLabel;html=1;align=center;verticalAlign=middle;resizable=0;points=[];" parent="29HRyFT-7yKYK-AXS0ma-50" vertex="1" connectable="0">
                    <mxGeometry x="-0.2297" y="1" relative="1" as="geometry">
                        <mxPoint x="16" y="109" as="offset"/>
                    </mxGeometry>
                </mxCell>
                <mxCell id="29HRyFT-7yKYK-AXS0ma-72" value="Torque&lt;br&gt;controller" style="rounded=1;whiteSpace=wrap;html=1;fillColor=#a20025;fontColor=#ffffff;strokeColor=#6F0000;" parent="1" vertex="1">
                    <mxGeometry x="-150" y="575" width="80" height="40" as="geometry"/>
                </mxCell>
                <mxCell id="29HRyFT-7yKYK-AXS0ma-75" style="edgeStyle=orthogonalEdgeStyle;rounded=0;orthogonalLoop=1;jettySize=auto;html=1;exitX=1;exitY=0.25;exitDx=0;exitDy=0;entryX=0;entryY=0.5;entryDx=0;entryDy=0;" parent="1" source="29HRyFT-7yKYK-AXS0ma-74" target="29HRyFT-7yKYK-AXS0ma-72" edge="1">
                    <mxGeometry relative="1" as="geometry"/>
                </mxCell>
                <mxCell id="29HRyFT-7yKYK-AXS0ma-87" style="edgeStyle=orthogonalEdgeStyle;rounded=0;orthogonalLoop=1;jettySize=auto;html=1;exitX=1;exitY=0.75;exitDx=0;exitDy=0;entryX=0;entryY=0.5;entryDx=0;entryDy=0;" parent="1" source="29HRyFT-7yKYK-AXS0ma-74" target="29HRyFT-7yKYK-AXS0ma-84" edge="1">
                    <mxGeometry relative="1" as="geometry"/>
                </mxCell>
                <mxCell id="29HRyFT-7yKYK-AXS0ma-74" value="Torque&lt;div&gt;splitter&lt;/div&gt;" style="rounded=1;whiteSpace=wrap;html=1;fillColor=#a20025;fontColor=#ffffff;strokeColor=#6F0000;" parent="1" vertex="1">
                    <mxGeometry x="-290" y="660" width="80" height="40" as="geometry"/>
                </mxCell>
                <mxCell id="29HRyFT-7yKYK-AXS0ma-77" style="edgeStyle=orthogonalEdgeStyle;rounded=0;orthogonalLoop=1;jettySize=auto;html=1;exitX=1;exitY=0.5;exitDx=0;exitDy=0;entryX=0;entryY=0.5;entryDx=0;entryDy=0;" parent="1" source="29HRyFT-7yKYK-AXS0ma-76" target="29HRyFT-7yKYK-AXS0ma-74" edge="1">
                    <mxGeometry relative="1" as="geometry"/>
                </mxCell>
                <mxCell id="29HRyFT-7yKYK-AXS0ma-78" value="Torque" style="edgeLabel;html=1;align=center;verticalAlign=middle;resizable=0;points=[];" parent="29HRyFT-7yKYK-AXS0ma-77" vertex="1" connectable="0">
                    <mxGeometry x="0.25" relative="1" as="geometry">
                        <mxPoint x="-7" y="-10" as="offset"/>
                    </mxGeometry>
                </mxCell>
                <mxCell id="29HRyFT-7yKYK-AXS0ma-76" value="Controller" style="rounded=1;whiteSpace=wrap;html=1;fillColor=#a20025;fontColor=#ffffff;strokeColor=#6F0000;" parent="1" vertex="1">
                    <mxGeometry x="-430" y="660" width="80" height="40" as="geometry"/>
                </mxCell>
                <mxCell id="29HRyFT-7yKYK-AXS0ma-83" style="edgeStyle=orthogonalEdgeStyle;rounded=0;orthogonalLoop=1;jettySize=auto;html=1;exitX=1;exitY=0.5;exitDx=0;exitDy=0;entryX=0;entryY=0.5;entryDx=0;entryDy=0;" parent="1" source="29HRyFT-7yKYK-AXS0ma-82" target="29HRyFT-7yKYK-AXS0ma-76" edge="1">
                    <mxGeometry relative="1" as="geometry"/>
                </mxCell>
                <mxCell id="29HRyFT-7yKYK-AXS0ma-82" value="Desired&lt;div&gt;load velocity&lt;/div&gt;" style="rhombus;whiteSpace=wrap;html=1;" parent="1" vertex="1">
                    <mxGeometry x="-580" y="640" width="80" height="80" as="geometry"/>
                </mxCell>
                <mxCell id="29HRyFT-7yKYK-AXS0ma-85" style="edgeStyle=orthogonalEdgeStyle;rounded=0;orthogonalLoop=1;jettySize=auto;html=1;exitX=1;exitY=0.5;exitDx=0;exitDy=0;entryX=0;entryY=0.5;entryDx=0;entryDy=0;" parent="1" source="29HRyFT-7yKYK-AXS0ma-84" target="29HRyFT-7yKYK-AXS0ma-64" edge="1">
                    <mxGeometry relative="1" as="geometry"/>
                </mxCell>
                <mxCell id="29HRyFT-7yKYK-AXS0ma-84" value="Torque&lt;br&gt;controller" style="rounded=1;whiteSpace=wrap;html=1;fillColor=#a20025;fontColor=#ffffff;strokeColor=#6F0000;" parent="1" vertex="1">
                    <mxGeometry x="-150" y="725" width="80" height="40" as="geometry"/>
                </mxCell>
            </root>
        </mxGraphModel>
    </diagram>
    <diagram id="Nqtktj3AW22exi5DTLeX" name="Spec">
        <mxGraphModel dx="1144" dy="917" grid="0" gridSize="10" guides="1" tooltips="1" connect="1" arrows="1" fold="1" page="1" pageScale="1" pageWidth="850" pageHeight="1100" math="0" shadow="0">
            <root>
                <mxCell id="0"/>
                <mxCell id="1" parent="0"/>
                <mxCell id="xk4rXPRtiVpxp40_jPGD-6" value="Single voltage in like a standard DC motor" style="text;html=1;align=center;verticalAlign=middle;whiteSpace=wrap;rounded=0;" parent="1" vertex="1">
                    <mxGeometry x="140" y="190" width="100" height="42.5" as="geometry"/>
                </mxCell>
                <mxCell id="xk4rXPRtiVpxp40_jPGD-7" value="Bidirectional mechanical&amp;nbsp;&lt;span style=&quot;background-color: initial;&quot;&gt;torque out&amp;nbsp;&lt;/span&gt;&lt;div&gt;&lt;span style=&quot;background-color: initial;&quot;&gt;with very low backlash&lt;/span&gt;&lt;/div&gt;" style="text;html=1;align=center;verticalAlign=middle;whiteSpace=wrap;rounded=0;" parent="1" vertex="1">
                    <mxGeometry x="600" y="182.5" width="200" height="57.5" as="geometry"/>
                </mxCell>
                <mxCell id="xk4rXPRtiVpxp40_jPGD-9" value="&lt;h1 style=&quot;margin-top: 0px;&quot;&gt;Final Product&lt;/h1&gt;&lt;p&gt;Behaves like a single motor, but with very low internal backlash.&amp;nbsp;&lt;/p&gt;&lt;p&gt;Achieves this by using two opposing motors and a controller to split input power between the two.&lt;/p&gt;" style="text;html=1;whiteSpace=wrap;overflow=hidden;rounded=0;" parent="1" vertex="1">
                    <mxGeometry x="40" y="40" width="590" height="120" as="geometry"/>
                </mxCell>
                <mxCell id="Ryeql_g8wmIusTiHCRa4-1" value="" style="shape=flexArrow;endArrow=classic;html=1;rounded=0;exitX=1;exitY=0.5;exitDx=0;exitDy=0;entryX=0;entryY=0.5;entryDx=0;entryDy=0;" parent="1" source="xk4rXPRtiVpxp40_jPGD-6" target="q0TRaY5yNswILtTSLUMX-4" edge="1">
                    <mxGeometry width="50" height="50" relative="1" as="geometry">
                        <mxPoint x="190" y="236.25" as="sourcePoint"/>
                        <mxPoint x="240" y="211.25" as="targetPoint"/>
                    </mxGeometry>
                </mxCell>
                <mxCell id="q0TRaY5yNswILtTSLUMX-3" value="" style="shape=flexArrow;endArrow=classic;html=1;rounded=0;exitX=1;exitY=0.5;exitDx=0;exitDy=0;entryX=0;entryY=0.5;entryDx=0;entryDy=0;" parent="1" source="q0TRaY5yNswILtTSLUMX-4" target="xk4rXPRtiVpxp40_jPGD-7" edge="1">
                    <mxGeometry width="50" height="50" relative="1" as="geometry">
                        <mxPoint x="510" y="165.5" as="sourcePoint"/>
                        <mxPoint x="620" y="164.25" as="targetPoint"/>
                    </mxGeometry>
                </mxCell>
                <mxCell id="q0TRaY5yNswILtTSLUMX-5" value="" style="group" parent="1" vertex="1" connectable="0">
                    <mxGeometry x="315" y="164.25" width="220" height="94" as="geometry"/>
                </mxCell>
                <mxCell id="q0TRaY5yNswILtTSLUMX-4" value="" style="rounded=0;whiteSpace=wrap;html=1;fillColor=none;dashed=1;" parent="q0TRaY5yNswILtTSLUMX-5" vertex="1">
                    <mxGeometry width="220" height="94" as="geometry"/>
                </mxCell>
                <mxCell id="Ryeql_g8wmIusTiHCRa4-2" value="" style="group" parent="q0TRaY5yNswILtTSLUMX-5" vertex="1" connectable="0">
                    <mxGeometry x="10" y="17" width="200" height="60" as="geometry"/>
                </mxCell>
                <mxCell id="xk4rXPRtiVpxp40_jPGD-3" style="edgeStyle=orthogonalEdgeStyle;rounded=0;orthogonalLoop=1;jettySize=auto;html=1;exitX=1;exitY=0.5;exitDx=0;exitDy=0;endArrow=none;endFill=0;strokeWidth=5;" parent="Ryeql_g8wmIusTiHCRa4-2" source="xk4rXPRtiVpxp40_jPGD-1" edge="1">
                    <mxGeometry relative="1" as="geometry">
                        <mxPoint x="200" y="29.75" as="targetPoint"/>
                    </mxGeometry>
                </mxCell>
                <mxCell id="xk4rXPRtiVpxp40_jPGD-4" style="edgeStyle=orthogonalEdgeStyle;rounded=0;orthogonalLoop=1;jettySize=auto;html=1;exitX=0;exitY=0.25;exitDx=0;exitDy=0;endArrow=none;endFill=0;" parent="Ryeql_g8wmIusTiHCRa4-2" source="xk4rXPRtiVpxp40_jPGD-1" edge="1">
                    <mxGeometry relative="1" as="geometry">
                        <mxPoint y="14.75" as="targetPoint"/>
                    </mxGeometry>
                </mxCell>
                <mxCell id="xk4rXPRtiVpxp40_jPGD-5" style="edgeStyle=orthogonalEdgeStyle;rounded=0;orthogonalLoop=1;jettySize=auto;html=1;exitX=0;exitY=0.75;exitDx=0;exitDy=0;endArrow=none;endFill=0;" parent="Ryeql_g8wmIusTiHCRa4-2" source="xk4rXPRtiVpxp40_jPGD-1" edge="1">
                    <mxGeometry relative="1" as="geometry">
                        <mxPoint y="44.75" as="targetPoint"/>
                    </mxGeometry>
                </mxCell>
                <mxCell id="xk4rXPRtiVpxp40_jPGD-1" value="" style="rounded=1;whiteSpace=wrap;html=1;" parent="Ryeql_g8wmIusTiHCRa4-2" vertex="1">
                    <mxGeometry x="30" width="120" height="60" as="geometry"/>
                </mxCell>
                <mxCell id="q0TRaY5yNswILtTSLUMX-6" value="" style="endArrow=none;html=1;rounded=0;" parent="1" edge="1">
                    <mxGeometry width="50" height="50" relative="1" as="geometry">
                        <mxPoint x="40" y="320" as="sourcePoint"/>
                        <mxPoint x="800" y="320" as="targetPoint"/>
                    </mxGeometry>
                </mxCell>
                <mxCell id="_Q2-gIdR4qBZD3vPZyer-1" value="&lt;h1 style=&quot;margin-top: 0px;&quot;&gt;Control strategies&lt;/h1&gt;&lt;p&gt;&lt;/p&gt;&lt;ol&gt;&lt;li&gt;&lt;b&gt;Simple:&lt;/b&gt;&amp;nbsp;send full uninterrupted voltage to the motor that&#39;s supposed to be driving the load, run the opposing motor either with constant small opposing voltage or in torque control mode to provide a constant small counter-torque. Switch motor roles when direction changes.&lt;/li&gt;&lt;/ol&gt;&lt;p&gt;&lt;/p&gt;" style="text;html=1;whiteSpace=wrap;overflow=hidden;rounded=0;" parent="1" vertex="1">
                    <mxGeometry x="40" y="360" width="760" height="120" as="geometry"/>
                </mxCell>
                <mxCell id="iVu1Zjd9dtM4bmRhZQlY-3" style="edgeStyle=orthogonalEdgeStyle;rounded=0;orthogonalLoop=1;jettySize=auto;html=1;exitX=1;exitY=0.25;exitDx=0;exitDy=0;entryX=0;entryY=0.25;entryDx=0;entryDy=0;" parent="1" source="iVu1Zjd9dtM4bmRhZQlY-1" target="iVu1Zjd9dtM4bmRhZQlY-2" edge="1">
                    <mxGeometry relative="1" as="geometry"/>
                </mxCell>
                <mxCell id="iVu1Zjd9dtM4bmRhZQlY-4" value="PWM" style="edgeLabel;html=1;align=center;verticalAlign=middle;resizable=0;points=[];" parent="iVu1Zjd9dtM4bmRhZQlY-3" vertex="1" connectable="0">
                    <mxGeometry x="0.3298" y="-1" relative="1" as="geometry">
                        <mxPoint x="-13" y="-1" as="offset"/>
                    </mxGeometry>
                </mxCell>
                <mxCell id="iVu1Zjd9dtM4bmRhZQlY-5" style="edgeStyle=orthogonalEdgeStyle;rounded=0;orthogonalLoop=1;jettySize=auto;html=1;exitX=1;exitY=0.75;exitDx=0;exitDy=0;entryX=0;entryY=0.75;entryDx=0;entryDy=0;" parent="1" source="iVu1Zjd9dtM4bmRhZQlY-1" target="iVu1Zjd9dtM4bmRhZQlY-2" edge="1">
                    <mxGeometry relative="1" as="geometry"/>
                </mxCell>
                <mxCell id="iVu1Zjd9dtM4bmRhZQlY-6" value="DIR" style="edgeLabel;html=1;align=center;verticalAlign=middle;resizable=0;points=[];" parent="iVu1Zjd9dtM4bmRhZQlY-5" vertex="1" connectable="0">
                    <mxGeometry x="0.425" y="-2" relative="1" as="geometry">
                        <mxPoint x="-17" y="-2" as="offset"/>
                    </mxGeometry>
                </mxCell>
                <mxCell id="iVu1Zjd9dtM4bmRhZQlY-1" value="uC" style="rounded=0;whiteSpace=wrap;html=1;" parent="1" vertex="1">
                    <mxGeometry x="240" y="520" width="80" height="40" as="geometry"/>
                </mxCell>
                <mxCell id="iVu1Zjd9dtM4bmRhZQlY-7" style="edgeStyle=orthogonalEdgeStyle;rounded=0;orthogonalLoop=1;jettySize=auto;html=1;exitX=0.25;exitY=0;exitDx=0;exitDy=0;" parent="1" source="iVu1Zjd9dtM4bmRhZQlY-2" edge="1">
                    <mxGeometry relative="1" as="geometry">
                        <mxPoint x="420" y="480" as="targetPoint"/>
                    </mxGeometry>
                </mxCell>
                <mxCell id="iVu1Zjd9dtM4bmRhZQlY-8" value="Vs" style="edgeLabel;html=1;align=center;verticalAlign=middle;resizable=0;points=[];" parent="iVu1Zjd9dtM4bmRhZQlY-7" vertex="1" connectable="0">
                    <mxGeometry x="0.8359" relative="1" as="geometry">
                        <mxPoint as="offset"/>
                    </mxGeometry>
                </mxCell>
                <mxCell id="iVu1Zjd9dtM4bmRhZQlY-9" style="edgeStyle=orthogonalEdgeStyle;rounded=0;orthogonalLoop=1;jettySize=auto;html=1;exitX=0.25;exitY=1;exitDx=0;exitDy=0;endArrow=none;endFill=0;" parent="1" source="iVu1Zjd9dtM4bmRhZQlY-2" edge="1">
                    <mxGeometry relative="1" as="geometry">
                        <mxPoint x="420" y="590" as="targetPoint"/>
                    </mxGeometry>
                </mxCell>
                <mxCell id="iVu1Zjd9dtM4bmRhZQlY-10" value="GND" style="edgeLabel;html=1;align=center;verticalAlign=middle;resizable=0;points=[];" parent="iVu1Zjd9dtM4bmRhZQlY-9" vertex="1" connectable="0">
                    <mxGeometry x="1" y="-1" relative="1" as="geometry">
                        <mxPoint x="1" y="1" as="offset"/>
                    </mxGeometry>
                </mxCell>
                <mxCell id="iVu1Zjd9dtM4bmRhZQlY-11" style="edgeStyle=orthogonalEdgeStyle;rounded=0;orthogonalLoop=1;jettySize=auto;html=1;exitX=1;exitY=0.25;exitDx=0;exitDy=0;entryX=0;entryY=0.25;entryDx=0;entryDy=0;endArrow=none;endFill=0;" parent="1" source="iVu1Zjd9dtM4bmRhZQlY-2" target="iVu1Zjd9dtM4bmRhZQlY-12" edge="1">
                    <mxGeometry relative="1" as="geometry">
                        <mxPoint x="540" y="530" as="targetPoint"/>
                    </mxGeometry>
                </mxCell>
                <mxCell id="iVu1Zjd9dtM4bmRhZQlY-14" value="V+" style="edgeLabel;html=1;align=center;verticalAlign=middle;resizable=0;points=[];" parent="iVu1Zjd9dtM4bmRhZQlY-11" vertex="1" connectable="0">
                    <mxGeometry x="0.1225" y="1" relative="1" as="geometry">
                        <mxPoint x="2" y="1" as="offset"/>
                    </mxGeometry>
                </mxCell>
                <mxCell id="iVu1Zjd9dtM4bmRhZQlY-13" style="edgeStyle=orthogonalEdgeStyle;rounded=0;orthogonalLoop=1;jettySize=auto;html=1;exitX=1;exitY=0.75;exitDx=0;exitDy=0;entryX=0;entryY=0.75;entryDx=0;entryDy=0;endArrow=none;endFill=0;" parent="1" source="iVu1Zjd9dtM4bmRhZQlY-2" target="iVu1Zjd9dtM4bmRhZQlY-12" edge="1">
                    <mxGeometry relative="1" as="geometry"/>
                </mxCell>
                <mxCell id="iVu1Zjd9dtM4bmRhZQlY-15" value="V-" style="edgeLabel;html=1;align=center;verticalAlign=middle;resizable=0;points=[];" parent="iVu1Zjd9dtM4bmRhZQlY-13" vertex="1" connectable="0">
                    <mxGeometry x="0.0323" relative="1" as="geometry">
                        <mxPoint x="4" as="offset"/>
                    </mxGeometry>
                </mxCell>
                <mxCell id="iVu1Zjd9dtM4bmRhZQlY-2" value="H-bridge" style="rounded=0;whiteSpace=wrap;html=1;" parent="1" vertex="1">
                    <mxGeometry x="400" y="520" width="80" height="40" as="geometry"/>
                </mxCell>
                <mxCell id="iVu1Zjd9dtM4bmRhZQlY-12" value="motor" style="whiteSpace=wrap;html=1;aspect=fixed;" parent="1" vertex="1">
                    <mxGeometry x="530" y="520" width="40" height="40" as="geometry"/>
                </mxCell>
                <mxCell id="iVu1Zjd9dtM4bmRhZQlY-17" value="Standard single-motor control" style="text;html=1;align=center;verticalAlign=middle;resizable=0;points=[];autosize=1;strokeColor=none;fillColor=none;fontStyle=2" parent="1" vertex="1">
                    <mxGeometry x="335" y="620" width="180" height="30" as="geometry"/>
                </mxCell>
                <mxCell id="iVu1Zjd9dtM4bmRhZQlY-18" style="edgeStyle=orthogonalEdgeStyle;rounded=0;orthogonalLoop=1;jettySize=auto;html=1;exitX=1;exitY=0.25;exitDx=0;exitDy=0;entryX=0;entryY=0.25;entryDx=0;entryDy=0;" parent="1" source="iVu1Zjd9dtM4bmRhZQlY-22" target="iVu1Zjd9dtM4bmRhZQlY-41" edge="1">
                    <mxGeometry relative="1" as="geometry">
                        <mxPoint x="280" y="880" as="targetPoint"/>
                    </mxGeometry>
                </mxCell>
                <mxCell id="iVu1Zjd9dtM4bmRhZQlY-19" value="PWM" style="edgeLabel;html=1;align=center;verticalAlign=middle;resizable=0;points=[];" parent="iVu1Zjd9dtM4bmRhZQlY-18" vertex="1" connectable="0">
                    <mxGeometry x="0.3298" y="-1" relative="1" as="geometry">
                        <mxPoint x="-16" y="-1" as="offset"/>
                    </mxGeometry>
                </mxCell>
                <mxCell id="iVu1Zjd9dtM4bmRhZQlY-20" style="edgeStyle=orthogonalEdgeStyle;rounded=0;orthogonalLoop=1;jettySize=auto;html=1;exitX=1;exitY=0.75;exitDx=0;exitDy=0;entryX=0;entryY=0.75;entryDx=0;entryDy=0;" parent="1" source="iVu1Zjd9dtM4bmRhZQlY-22" target="iVu1Zjd9dtM4bmRhZQlY-41" edge="1">
                    <mxGeometry relative="1" as="geometry">
                        <mxPoint x="280" y="900" as="targetPoint"/>
                    </mxGeometry>
                </mxCell>
                <mxCell id="iVu1Zjd9dtM4bmRhZQlY-21" value="DIR" style="edgeLabel;html=1;align=center;verticalAlign=middle;resizable=0;points=[];" parent="iVu1Zjd9dtM4bmRhZQlY-20" vertex="1" connectable="0">
                    <mxGeometry x="0.425" y="-2" relative="1" as="geometry">
                        <mxPoint x="-21" y="-2" as="offset"/>
                    </mxGeometry>
                </mxCell>
                <mxCell id="iVu1Zjd9dtM4bmRhZQlY-22" value="uC" style="rounded=0;whiteSpace=wrap;html=1;" parent="1" vertex="1">
                    <mxGeometry x="130" y="870" width="80" height="40" as="geometry"/>
                </mxCell>
                <mxCell id="iVu1Zjd9dtM4bmRhZQlY-23" style="edgeStyle=orthogonalEdgeStyle;rounded=0;orthogonalLoop=1;jettySize=auto;html=1;exitX=0.25;exitY=0;exitDx=0;exitDy=0;" parent="1" source="iVu1Zjd9dtM4bmRhZQlY-31" edge="1">
                    <mxGeometry relative="1" as="geometry">
                        <mxPoint x="471" y="730" as="targetPoint"/>
                    </mxGeometry>
                </mxCell>
                <mxCell id="iVu1Zjd9dtM4bmRhZQlY-24" value="Vs" style="edgeLabel;html=1;align=center;verticalAlign=middle;resizable=0;points=[];" parent="iVu1Zjd9dtM4bmRhZQlY-23" vertex="1" connectable="0">
                    <mxGeometry x="0.8359" relative="1" as="geometry">
                        <mxPoint as="offset"/>
                    </mxGeometry>
                </mxCell>
                <mxCell id="iVu1Zjd9dtM4bmRhZQlY-25" style="edgeStyle=orthogonalEdgeStyle;rounded=0;orthogonalLoop=1;jettySize=auto;html=1;exitX=0.25;exitY=1;exitDx=0;exitDy=0;endArrow=none;endFill=0;" parent="1" source="iVu1Zjd9dtM4bmRhZQlY-31" edge="1">
                    <mxGeometry relative="1" as="geometry">
                        <mxPoint x="471" y="840" as="targetPoint"/>
                    </mxGeometry>
                </mxCell>
                <mxCell id="iVu1Zjd9dtM4bmRhZQlY-26" value="GND" style="edgeLabel;html=1;align=center;verticalAlign=middle;resizable=0;points=[];" parent="iVu1Zjd9dtM4bmRhZQlY-25" vertex="1" connectable="0">
                    <mxGeometry x="1" y="-1" relative="1" as="geometry">
                        <mxPoint x="1" y="1" as="offset"/>
                    </mxGeometry>
                </mxCell>
                <mxCell id="iVu1Zjd9dtM4bmRhZQlY-27" style="edgeStyle=orthogonalEdgeStyle;rounded=0;orthogonalLoop=1;jettySize=auto;html=1;exitX=1;exitY=0.25;exitDx=0;exitDy=0;entryX=0;entryY=0.25;entryDx=0;entryDy=0;endArrow=none;endFill=0;" parent="1" source="iVu1Zjd9dtM4bmRhZQlY-31" edge="1">
                    <mxGeometry relative="1" as="geometry">
                        <mxPoint x="570" y="780" as="targetPoint"/>
                    </mxGeometry>
                </mxCell>
                <mxCell id="iVu1Zjd9dtM4bmRhZQlY-28" value="V+" style="edgeLabel;html=1;align=center;verticalAlign=middle;resizable=0;points=[];" parent="iVu1Zjd9dtM4bmRhZQlY-27" vertex="1" connectable="0">
                    <mxGeometry x="0.1225" y="1" relative="1" as="geometry">
                        <mxPoint x="-8" y="-9" as="offset"/>
                    </mxGeometry>
                </mxCell>
                <mxCell id="iVu1Zjd9dtM4bmRhZQlY-29" style="edgeStyle=orthogonalEdgeStyle;rounded=0;orthogonalLoop=1;jettySize=auto;html=1;exitX=1;exitY=0.75;exitDx=0;exitDy=0;entryX=0;entryY=0.75;entryDx=0;entryDy=0;endArrow=none;endFill=0;" parent="1" source="iVu1Zjd9dtM4bmRhZQlY-31" edge="1">
                    <mxGeometry relative="1" as="geometry">
                        <mxPoint x="570" y="800" as="targetPoint"/>
                    </mxGeometry>
                </mxCell>
                <mxCell id="iVu1Zjd9dtM4bmRhZQlY-30" value="V-" style="edgeLabel;html=1;align=center;verticalAlign=middle;resizable=0;points=[];" parent="iVu1Zjd9dtM4bmRhZQlY-29" vertex="1" connectable="0">
                    <mxGeometry x="0.0323" relative="1" as="geometry">
                        <mxPoint x="-6" y="10" as="offset"/>
                    </mxGeometry>
                </mxCell>
                <mxCell id="iVu1Zjd9dtM4bmRhZQlY-31" value="H-bridge 1" style="rounded=0;whiteSpace=wrap;html=1;" parent="1" vertex="1">
                    <mxGeometry x="451" y="770" width="80" height="40" as="geometry"/>
                </mxCell>
                <mxCell id="iVu1Zjd9dtM4bmRhZQlY-32" style="edgeStyle=orthogonalEdgeStyle;rounded=0;orthogonalLoop=1;jettySize=auto;html=1;exitX=0.25;exitY=0;exitDx=0;exitDy=0;" parent="1" source="iVu1Zjd9dtM4bmRhZQlY-40" edge="1">
                    <mxGeometry relative="1" as="geometry">
                        <mxPoint x="470" y="910" as="targetPoint"/>
                    </mxGeometry>
                </mxCell>
                <mxCell id="iVu1Zjd9dtM4bmRhZQlY-33" value="Vs" style="edgeLabel;html=1;align=center;verticalAlign=middle;resizable=0;points=[];" parent="iVu1Zjd9dtM4bmRhZQlY-32" vertex="1" connectable="0">
                    <mxGeometry x="0.8359" relative="1" as="geometry">
                        <mxPoint as="offset"/>
                    </mxGeometry>
                </mxCell>
                <mxCell id="iVu1Zjd9dtM4bmRhZQlY-34" style="edgeStyle=orthogonalEdgeStyle;rounded=0;orthogonalLoop=1;jettySize=auto;html=1;exitX=0.25;exitY=1;exitDx=0;exitDy=0;endArrow=none;endFill=0;" parent="1" source="iVu1Zjd9dtM4bmRhZQlY-40" edge="1">
                    <mxGeometry relative="1" as="geometry">
                        <mxPoint x="470" y="1020" as="targetPoint"/>
                    </mxGeometry>
                </mxCell>
                <mxCell id="iVu1Zjd9dtM4bmRhZQlY-35" value="GND" style="edgeLabel;html=1;align=center;verticalAlign=middle;resizable=0;points=[];" parent="iVu1Zjd9dtM4bmRhZQlY-34" vertex="1" connectable="0">
                    <mxGeometry x="1" y="-1" relative="1" as="geometry">
                        <mxPoint x="1" y="1" as="offset"/>
                    </mxGeometry>
                </mxCell>
                <mxCell id="iVu1Zjd9dtM4bmRhZQlY-36" style="edgeStyle=orthogonalEdgeStyle;rounded=0;orthogonalLoop=1;jettySize=auto;html=1;exitX=1;exitY=0.25;exitDx=0;exitDy=0;entryX=0;entryY=0.25;entryDx=0;entryDy=0;endArrow=none;endFill=0;" parent="1" source="iVu1Zjd9dtM4bmRhZQlY-40" edge="1">
                    <mxGeometry relative="1" as="geometry">
                        <mxPoint x="580" y="960" as="targetPoint"/>
                    </mxGeometry>
                </mxCell>
                <mxCell id="iVu1Zjd9dtM4bmRhZQlY-37" value="V+" style="edgeLabel;html=1;align=center;verticalAlign=middle;resizable=0;points=[];" parent="iVu1Zjd9dtM4bmRhZQlY-36" vertex="1" connectable="0">
                    <mxGeometry x="0.1225" y="1" relative="1" as="geometry">
                        <mxPoint x="-8" y="-9" as="offset"/>
                    </mxGeometry>
                </mxCell>
                <mxCell id="iVu1Zjd9dtM4bmRhZQlY-38" style="edgeStyle=orthogonalEdgeStyle;rounded=0;orthogonalLoop=1;jettySize=auto;html=1;exitX=1;exitY=0.75;exitDx=0;exitDy=0;entryX=0;entryY=0.75;entryDx=0;entryDy=0;endArrow=none;endFill=0;" parent="1" source="iVu1Zjd9dtM4bmRhZQlY-40" edge="1">
                    <mxGeometry relative="1" as="geometry">
                        <mxPoint x="580" y="980" as="targetPoint"/>
                    </mxGeometry>
                </mxCell>
                <mxCell id="iVu1Zjd9dtM4bmRhZQlY-39" value="V-" style="edgeLabel;html=1;align=center;verticalAlign=middle;resizable=0;points=[];" parent="iVu1Zjd9dtM4bmRhZQlY-38" vertex="1" connectable="0">
                    <mxGeometry x="0.0323" relative="1" as="geometry">
                        <mxPoint x="-6" y="10" as="offset"/>
                    </mxGeometry>
                </mxCell>
                <mxCell id="iVu1Zjd9dtM4bmRhZQlY-40" value="H-bridge 2" style="rounded=0;whiteSpace=wrap;html=1;" parent="1" vertex="1">
                    <mxGeometry x="450" y="950" width="80" height="40" as="geometry"/>
                </mxCell>
                <mxCell id="iVu1Zjd9dtM4bmRhZQlY-42" style="edgeStyle=orthogonalEdgeStyle;rounded=0;orthogonalLoop=1;jettySize=auto;html=1;exitX=0.75;exitY=0;exitDx=0;exitDy=0;entryX=0;entryY=0.75;entryDx=0;entryDy=0;" parent="1" source="iVu1Zjd9dtM4bmRhZQlY-41" target="iVu1Zjd9dtM4bmRhZQlY-31" edge="1">
                    <mxGeometry relative="1" as="geometry"/>
                </mxCell>
                <mxCell id="iVu1Zjd9dtM4bmRhZQlY-47" value="DIR" style="edgeLabel;html=1;align=center;verticalAlign=middle;resizable=0;points=[];" parent="iVu1Zjd9dtM4bmRhZQlY-42" vertex="1" connectable="0">
                    <mxGeometry x="0.4046" relative="1" as="geometry">
                        <mxPoint x="4" as="offset"/>
                    </mxGeometry>
                </mxCell>
                <mxCell id="iVu1Zjd9dtM4bmRhZQlY-43" style="edgeStyle=orthogonalEdgeStyle;rounded=0;orthogonalLoop=1;jettySize=auto;html=1;exitX=0.5;exitY=0;exitDx=0;exitDy=0;entryX=0;entryY=0.25;entryDx=0;entryDy=0;" parent="1" source="iVu1Zjd9dtM4bmRhZQlY-41" target="iVu1Zjd9dtM4bmRhZQlY-31" edge="1">
                    <mxGeometry relative="1" as="geometry"/>
                </mxCell>
                <mxCell id="iVu1Zjd9dtM4bmRhZQlY-46" value="PWM" style="edgeLabel;html=1;align=center;verticalAlign=middle;resizable=0;points=[];" parent="iVu1Zjd9dtM4bmRhZQlY-43" vertex="1" connectable="0">
                    <mxGeometry x="0.4844" y="-1" relative="1" as="geometry">
                        <mxPoint x="8" y="-1" as="offset"/>
                    </mxGeometry>
                </mxCell>
                <mxCell id="iVu1Zjd9dtM4bmRhZQlY-44" style="edgeStyle=orthogonalEdgeStyle;rounded=0;orthogonalLoop=1;jettySize=auto;html=1;exitX=0.75;exitY=1;exitDx=0;exitDy=0;entryX=0;entryY=0.25;entryDx=0;entryDy=0;" parent="1" source="iVu1Zjd9dtM4bmRhZQlY-41" target="iVu1Zjd9dtM4bmRhZQlY-40" edge="1">
                    <mxGeometry relative="1" as="geometry"/>
                </mxCell>
                <mxCell id="iVu1Zjd9dtM4bmRhZQlY-48" value="PWM" style="edgeLabel;html=1;align=center;verticalAlign=middle;resizable=0;points=[];" parent="iVu1Zjd9dtM4bmRhZQlY-44" vertex="1" connectable="0">
                    <mxGeometry x="0.4646" y="1" relative="1" as="geometry">
                        <mxPoint x="-5" as="offset"/>
                    </mxGeometry>
                </mxCell>
                <mxCell id="iVu1Zjd9dtM4bmRhZQlY-45" style="edgeStyle=orthogonalEdgeStyle;rounded=0;orthogonalLoop=1;jettySize=auto;html=1;exitX=0.5;exitY=1;exitDx=0;exitDy=0;entryX=0;entryY=0.75;entryDx=0;entryDy=0;" parent="1" source="iVu1Zjd9dtM4bmRhZQlY-41" target="iVu1Zjd9dtM4bmRhZQlY-40" edge="1">
                    <mxGeometry relative="1" as="geometry"/>
                </mxCell>
                <mxCell id="iVu1Zjd9dtM4bmRhZQlY-49" value="DIR" style="edgeLabel;html=1;align=center;verticalAlign=middle;resizable=0;points=[];" parent="iVu1Zjd9dtM4bmRhZQlY-45" vertex="1" connectable="0">
                    <mxGeometry x="0.5388" y="1" relative="1" as="geometry">
                        <mxPoint as="offset"/>
                    </mxGeometry>
                </mxCell>
                <mxCell id="iVu1Zjd9dtM4bmRhZQlY-41" value="Internal&lt;div&gt;controller&lt;/div&gt;" style="rounded=0;whiteSpace=wrap;html=1;" parent="1" vertex="1">
                    <mxGeometry x="310" y="870" width="80" height="40" as="geometry"/>
                </mxCell>
                <mxCell id="iVu1Zjd9dtM4bmRhZQlY-50" value="motor&lt;br&gt;1" style="whiteSpace=wrap;html=1;aspect=fixed;" parent="1" vertex="1">
                    <mxGeometry x="570" y="770" width="40" height="40" as="geometry"/>
                </mxCell>
                <mxCell id="iVu1Zjd9dtM4bmRhZQlY-51" value="motor&lt;br&gt;2" style="whiteSpace=wrap;html=1;aspect=fixed;" parent="1" vertex="1">
                    <mxGeometry x="570" y="950" width="40" height="40" as="geometry"/>
                </mxCell>
                <mxCell id="iVu1Zjd9dtM4bmRhZQlY-52" value="Split-motor control" style="text;html=1;align=center;verticalAlign=middle;resizable=0;points=[];autosize=1;strokeColor=none;fillColor=none;fontStyle=2" parent="1" vertex="1">
                    <mxGeometry x="365" y="1040" width="120" height="30" as="geometry"/>
                </mxCell>
                <mxCell id="ZoC6oEB7ZWvFUaEhy1F0-1" value="&lt;h1 style=&quot;margin-top: 0px;&quot;&gt;Plan&lt;/h1&gt;&lt;p&gt;&lt;/p&gt;&lt;ol&gt;&lt;li&gt;Build mechanical system&lt;/li&gt;&lt;ol&gt;&lt;li&gt;Test system&lt;/li&gt;&lt;ol&gt;&lt;li&gt;2 motors with single gears, meshed with center output gear. Center gear has additional inertia (like flywheel)&lt;/li&gt;&lt;li&gt;Pololu motors, Jacob thinks he has 2x motors, so start with those.&lt;/li&gt;&lt;li&gt;All gears are the same size, you can get on McMaster.&lt;br&gt;Gear pitch diameter needs to be &amp;gt; 15 mm&lt;/li&gt;&lt;li&gt;Encoder on output shaft, motors already have encoders. No additional needed&lt;/li&gt;&lt;li&gt;Output shaft with inertia wheel&lt;/li&gt;&lt;li&gt;Current sensors&lt;/li&gt;&lt;/ol&gt;&lt;/ol&gt;&lt;li&gt;How to test the system&lt;/li&gt;&lt;ol&gt;&lt;li&gt;Compare performance with 1 motor vs two motors&lt;/li&gt;&lt;/ol&gt;&lt;li&gt;Simulate planned controlled strategy in parallel with mechanical system build&lt;/li&gt;&lt;ol&gt;&lt;li&gt;&lt;br&gt;&lt;/li&gt;&lt;/ol&gt;&lt;/ol&gt;&lt;p&gt;&lt;/p&gt;" style="text;html=1;whiteSpace=wrap;overflow=hidden;rounded=0;" parent="1" vertex="1">
                    <mxGeometry x="880" y="40" width="760" height="380" as="geometry"/>
                </mxCell>
            </root>
        </mxGraphModel>
    </diagram>
</mxfile>